<svg width="1360" height="900" viewBox="0 0 1360 900" fill="none" xmlns="http://www.w3.org/2000/svg">
<path d="M643.892 227.092C643.769 226.969 643.502 226.969 643.113 226.969C642.743 226.846 642.23 226.579 641.573 226.579C640.691 226.456 639.911 226.456 639.152 226.456C638.372 226.333 637.859 226.333 637.469 226.456C636.956 226.456 636.71 226.456 636.71 226.579C635.93 226.579 634.022 226.969 627.476 228.631C621.709 229.924 614.014 231.709 599.772 235.444C583.992 239.405 567.329 243.776 550.522 248.126C534.865 251.984 525.261 254.282 517.566 256.211C509.091 258.14 505.889 258.776 504.597 259.166C503.714 258.9 501.785 258.387 497.291 257.627C493.187 256.724 488.18 255.698 480.238 254.795C471.64 253.769 463.185 253.256 454.71 253.01C446.502 252.743 441.372 253.01 437.144 253.4C432.404 253.523 430.475 253.769 429.572 253.913C428.3 253.4 425.345 252.23 417.26 248.906C409.831 245.705 400.33 241.724 385.062 235.444C368.399 228.385 351.593 221.326 335.812 215.046C321.325 209.28 313.506 206.325 307.596 204.273C300.68 201.708 298.628 201.195 297.849 201.072C297.212 200.415 295.797 199.656 292.718 200.169C289.784 199.902 286.193 200.805 281.186 205.422C275.789 210.675 270.802 217.858 266.041 226.579C261.424 234.788 258.859 241.6 256.807 247.613C254.385 253.523 253.482 256.334 253.093 257.874C254.509 256.724 257.977 254.672 266.431 251.717C274.003 248.27 283.361 244.925 298.628 242.996C314.778 241.211 331.072 241.457 347.366 243.776C362.366 246.218 371.601 250.178 379.173 254.036C387.381 257.361 390.706 259.556 392.245 260.829C393.927 261.465 397.252 263.271 403.921 268.647C410.467 273.141 417.896 279.174 426.494 290.194C435.092 302.137 442.008 314.819 447.015 328.158C451.386 340.614 452.145 348.822 452.268 355.861C452.925 363.31 452.535 366.511 452.268 368.05C452.412 367.291 452.781 365.875 453.951 362.284C454.833 358.939 456.003 354.835 458.691 348.678C461.503 342.009 464.581 335.73 468.316 329.45C471.763 323.417 474.328 319.949 476.647 317.015C478.945 313.67 479.972 312.254 480.628 311.618C481.777 309.053 484.979 304.435 494.336 296.104C502.298 287.383 512.805 278.148 531.664 268.791C551.938 259.289 573.485 253.01 595.668 249.932C616.435 247.49 630.041 249.419 641.327 252.107C653.373 253.769 658.503 255.575 660.945 256.847C660.822 256.211 660.432 255.062 659.796 252.497C659.16 249.932 658.38 246.977 656.841 243.14C655.056 239.035 653.127 235.567 651.075 232.612C649.023 229.924 647.484 228.898 646.191 228.262C644.795 227.236 644.139 227.092 643.892 227.092ZM449.067 389.084C448.944 389.597 448.677 391.013 447.795 393.968C447.015 396.533 445.989 399.611 443.937 404.598C441.638 409.872 439.196 415.002 436.365 420.255C433.553 424.996 431.501 427.951 429.839 430.393C428.033 433.081 427.13 434.107 426.884 434.743C425.591 437.185 412.766 451.283 412.766 451.283C412.766 451.283 393.661 470.655 374.166 482.721C352.886 495.546 330.436 505.93 307.473 512.209C285.803 517.093 271.828 515.677 260.398 512.846C247.962 510.937 242.832 508.105 240.657 506.176C240.267 505.93 239.508 505.663 238.092 504.904C236.676 504.124 235.014 503.365 232.572 501.949C229.883 500.41 227.318 498.871 224.753 497.209C222.311 495.546 220.772 494.377 219.623 493.494C218.207 492.325 217.694 491.812 217.571 491.689C217.181 494.13 217.181 499.384 219.233 510.937C220.259 521.834 222.434 534.536 229.76 552.615C237.825 571.597 248.229 589.04 260.398 605.066C271.951 619.698 281.186 627.003 289.271 632.523C297.336 639.193 301.317 641.491 303.369 642.394C303.492 642.004 303.882 641.368 305.175 640.075C306.057 638.68 307.35 637.141 309.792 635.335C312.357 633.283 315.291 631.62 318.513 630.471C321.448 629.302 323.766 629.055 325.695 629.055C327.604 628.789 328.63 628.789 329.143 628.932C330.559 628.665 333.124 628.665 336.982 630.081C340.696 631.354 344.287 633.549 347.879 637.387C350.957 641.881 352.619 646.744 354.281 650.089C355.964 652.388 356.99 652.388 358.016 651.505C359.288 650.848 360.191 649.453 360.704 648.55C360.827 647.647 361.607 646.375 364.541 645.205C367.107 643.543 370.698 642.394 376.998 643.666C383.913 645.472 390.972 649.063 397.375 653.927C402.772 658.421 405.337 662.648 406.876 666.506C408.661 670.097 408.928 671.882 408.805 672.785C408.661 672.785 408.661 673.052 408.805 673.565C408.805 673.811 408.805 674.201 408.928 674.961C408.928 675.617 408.928 676.376 408.928 677.156C408.805 677.669 408.805 678.039 408.805 678.429C408.661 678.695 408.661 678.942 408.805 679.065C408.805 678.942 408.928 678.942 409.318 679.065C409.564 679.065 409.831 679.065 410.467 679.208C410.98 679.208 411.493 679.331 412.129 679.455C412.642 679.455 413.032 679.455 413.422 679.455C413.669 679.455 413.792 679.455 413.935 679.578C413.792 679.455 413.792 679.331 413.792 678.942C413.668 678.552 413.668 678.182 413.668 677.526C413.545 676.766 413.545 675.987 413.668 675.227C413.668 674.448 413.668 673.934 413.792 673.565C413.792 673.052 413.792 672.785 413.935 672.785C413.669 671.882 413.792 670.097 415.721 666.506C417.137 662.648 419.702 658.421 425.222 653.927C431.501 649.063 438.683 645.472 445.599 643.666C451.755 642.394 455.346 643.543 458.055 645.205C460.867 646.375 461.646 647.647 461.893 648.55C462.282 649.453 463.185 650.848 464.581 651.505C465.484 652.388 466.51 652.388 468.316 650.089C469.855 646.744 471.517 641.881 474.718 637.387C478.186 633.549 481.9 631.354 485.758 630.081C489.473 628.665 492.038 628.665 493.454 628.932C494.213 628.665 495.752 628.542 498.953 629.178C501.908 629.445 505.376 630.204 509.727 632.893C514.098 635.848 517.812 639.562 520.89 644.056C523.578 648.16 524.604 651.362 525.261 654.193C526.144 656.882 526.41 658.298 526.533 658.934C528.072 658.298 531.54 656.758 538.969 652.388C546.028 648.55 554.503 643.666 566.159 634.699C578.226 624.828 589.389 614.424 599.649 603.917C609.007 594.17 613.87 588.014 617.728 583.006C622.222 577.486 623.884 575.188 624.644 574.162C625.157 573.382 626.326 571.72 628.892 568.396C631.19 565.174 633.755 561.583 637.736 555.939C641.717 549.927 645.431 544.017 649.146 537.984C652.491 532.217 654.399 528.503 655.938 525.425C657.621 521.957 658.257 520.541 658.503 519.905C656.964 520.171 653.517 520.685 645.431 521.321C637.982 522.08 629.015 522.737 614.383 522.737C598.623 522.593 582.843 521.834 567.185 520.418C552.451 518.756 543.34 516.95 535.891 515.041C527.683 513.112 524.235 511.819 522.819 511.183C520.5 510.793 516.15 509.644 508.065 504.904C499.856 501.19 490.889 495.793 480.485 483.993C469.711 470.778 461.256 455.9 455.1 439.873C449.457 424.606 448.431 413.976 448.554 404.865C447.651 395.24 448.431 391.013 449.067 389.084ZM429.242 472.588C428.873 472.444 428.729 472.321 430.145 472.834C431.171 473.101 438.107 475.399 438.107 475.399L453.333 481.25L464.167 486.25C464.167 486.25 467.5 488.9 467.5 489.167C467.89 488.777 467.206 493.478 467.206 493.478C467.206 493.478 466.057 499.388 460.803 509.895C453.621 522.351 444.387 536.326 436.691 548.372C430.658 558.263 427.703 564.275 427.703 564.275C427.703 564.275 426.308 567.107 426.431 566.327C426.554 567.23 425.405 564.419 425.405 564.419L417.083 548.372C417.083 548.372 404.617 522.713 400 512.083C395.383 502.459 393.721 497.213 393.721 497.213C393.721 497.213 392.818 493.232 393.474 493.478C393.331 493.232 393.474 492.842 395.383 491.426C396.922 489.887 404.248 485.147 404.248 485.147L420.911 476.302C420.911 476.302 427.19 473.224 428.36 472.834C429.632 472.198 429.509 472.321 429.242 472.588C429.119 472.444 429.119 472.444 429.242 472.588Z" fill="black"/>
<path d="M442.151 699.463C442.275 699.463 442.275 699.586 441.762 699.463C441.125 699.463 440.222 699.339 438.294 698.313C435.852 697.164 433.163 695.625 431.111 693.429C429.326 691.008 428.669 688.812 428.546 686.76C428.156 684.585 428.546 683.436 428.813 682.8C428.546 682.143 428.669 680.994 430.085 678.695C431.111 676.13 433.04 673.298 437.144 670.343C441.762 667.142 447.015 664.7 452.145 663.551C456.639 662.648 459.327 663.428 461.38 664.577C463.432 665.357 463.945 666.116 464.211 666.752C464.581 667.409 465.237 668.291 466.264 668.804C466.9 669.317 467.536 669.461 468.952 667.922C470.101 665.726 471.394 662.525 473.815 659.57C476.38 657.005 479.212 655.609 482.024 654.83C484.855 653.927 486.641 653.927 487.81 654.07C488.693 653.804 490.499 653.68 493.823 654.583C497.045 655.096 500.636 656.246 504.35 659.837C507.941 663.818 510.507 668.681 512.046 674.078C513.318 678.942 513.072 682.287 512.559 685.098C512.292 687.93 511.922 688.956 511.656 689.469C511.922 690.105 511.922 691.377 508.844 693.183C506.012 694.968 501.518 696.774 492.284 698.313C481.387 699.463 469.465 699.852 459.081 699.976C450.093 700.099 446.256 699.729 444.06 699.586C441.372 699.463 441.495 699.463 442.151 699.463Z" fill="black"/>
<path d="M374.432 695.994C374.289 695.994 374.166 695.994 374.802 695.871C375.315 695.871 376.095 695.871 378.024 694.845C380.076 693.696 382.374 692.034 384.426 689.592C385.965 687.027 386.601 684.708 386.868 682.533C387.114 680.357 386.745 679.065 386.601 678.428C386.745 677.669 386.601 676.376 385.452 673.934C384.426 671.246 382.641 668.291 379.05 665.09C374.679 661.622 369.938 659.057 365.321 657.907C361.094 657.005 358.652 657.784 356.99 659.057C355.061 659.836 354.548 660.739 354.425 661.376C354.035 662.012 353.399 662.915 352.619 663.428C351.859 664.064 351.203 664.064 350.054 662.525C348.904 660.226 347.612 656.881 345.56 653.803C343.138 651.115 340.573 649.576 338.131 648.673C335.566 647.647 333.904 647.647 333.001 647.914C332.098 647.647 330.436 647.401 327.481 648.427C324.403 648.94 321.201 650.212 317.856 653.926C314.409 658.174 312.09 663.428 310.818 669.071C309.525 674.201 309.915 677.792 310.428 680.747C310.551 683.682 310.941 684.851 311.187 685.488C310.818 686.124 310.818 687.417 313.752 689.325C316.194 691.254 320.298 693.183 328.773 694.722C338.521 695.994 349.417 696.507 359.042 696.651C367.106 696.774 370.698 696.384 372.75 696.138C375.192 695.994 374.802 695.994 374.432 695.994C374.289 695.994 374.289 695.994 374.432 695.994Z" fill="black"/>
<path fill-rule="evenodd" clip-rule="evenodd" d="M621.162 477.671C675.053 464.265 708.76 413.276 696.448 363.784C684.136 314.292 630.467 285.039 576.576 298.446C522.685 311.852 488.979 362.841 501.291 412.333C513.603 461.825 567.271 491.077 621.162 477.671ZM597.007 388.172C614.971 383.703 626.206 366.707 622.102 350.21C617.998 333.713 600.109 323.962 582.145 328.43C564.182 332.899 552.946 349.896 557.05 366.393C561.154 382.89 579.043 392.641 597.007 388.172Z" fill="black"/>
<path fill-rule="evenodd" clip-rule="evenodd" d="M322.407 464.329C376.298 450.922 410.005 399.933 397.693 350.441C385.381 300.95 331.713 271.697 277.822 285.103C223.931 298.51 190.224 349.499 202.536 398.99C214.848 448.482 268.516 477.735 322.407 464.329ZM332.288 382.016C350.252 377.547 361.487 360.551 357.383 344.054C353.279 327.556 335.39 317.805 317.426 322.274C299.462 326.743 288.227 343.739 292.331 360.237C296.435 376.734 314.324 386.485 332.288 382.016Z" fill="black"/>
<path d="M831.494 312.354C829.087 314.132 826.106 315.492 822.549 316.434C819.097 317.271 815.436 317.689 811.565 317.689C801.522 317.689 793.728 315.126 788.184 310C782.744 304.874 780.024 297.342 780.024 287.404V252.725H767V233.894H780.024V213.338H804.504V233.894H825.531V252.725H804.504V287.09C804.504 290.647 805.393 293.419 807.171 295.407C809.054 297.29 811.67 298.231 815.017 298.231C818.888 298.231 822.183 297.185 824.903 295.093L831.494 312.354ZM888.701 230.756C899.163 230.756 907.584 233.894 913.965 240.171C920.451 246.448 923.694 255.758 923.694 268.103V316.434H899.215V271.869C899.215 265.174 897.75 260.204 894.821 256.961C891.892 253.614 887.655 251.94 882.111 251.94C875.939 251.94 871.022 253.875 867.36 257.746C863.699 261.512 861.868 267.161 861.868 274.693V316.434H837.389V200H861.868V240.799C865.111 237.556 869.034 235.097 873.637 233.424C878.24 231.645 883.262 230.756 888.701 230.756ZM1021.65 274.536C1021.65 274.85 1021.5 277.047 1021.18 281.127H957.317C958.467 286.358 961.187 290.49 965.476 293.524C969.766 296.557 975.101 298.074 981.482 298.074C985.876 298.074 989.747 297.447 993.094 296.191C996.546 294.831 999.737 292.739 1002.67 289.914L1015.69 304.037C1007.74 313.138 996.128 317.689 980.854 317.689C971.335 317.689 962.913 315.858 955.591 312.197C948.268 308.431 942.619 303.253 938.643 296.662C934.668 290.071 932.68 282.592 932.68 274.223C932.68 265.958 934.616 258.531 938.486 251.94C942.462 245.245 947.849 240.067 954.649 236.405C961.553 232.639 969.243 230.756 977.716 230.756C985.981 230.756 993.46 232.534 1000.16 236.091C1006.85 239.648 1012.08 244.774 1015.85 251.469C1019.72 258.06 1021.65 265.749 1021.65 274.536ZM977.873 249.272C972.329 249.272 967.673 250.842 963.907 253.98C960.141 257.118 957.84 261.408 957.003 266.847H998.586C997.749 261.512 995.448 257.275 991.682 254.137C987.916 250.894 983.313 249.272 977.873 249.272ZM863.034 391.156V507.589H839.653V497.86C833.586 505.183 824.798 508.845 813.291 508.845C805.34 508.845 798.122 507.066 791.636 503.509C785.255 499.952 780.233 494.879 776.572 488.288C772.911 481.698 771.08 474.061 771.08 465.378C771.08 456.695 772.911 449.058 776.572 442.468C780.233 435.877 785.255 430.804 791.636 427.247C798.122 423.69 805.34 421.912 813.291 421.912C824.066 421.912 832.487 425.311 838.555 432.111V391.156H863.034ZM817.528 488.759C823.7 488.759 828.826 486.667 832.906 482.482C836.986 478.193 839.026 472.492 839.026 465.378C839.026 458.264 836.986 452.615 832.906 448.431C828.826 444.142 823.7 441.997 817.528 441.997C811.251 441.997 806.073 444.142 801.993 448.431C797.913 452.615 795.873 458.264 795.873 465.378C795.873 472.492 797.913 478.193 801.993 482.482C806.073 486.667 811.251 488.759 817.528 488.759ZM911.896 421.912C924.972 421.912 935.015 425.05 942.024 431.327C949.033 437.499 952.538 446.862 952.538 459.415V507.589H929.628V497.076C925.025 504.922 916.447 508.845 903.893 508.845C897.407 508.845 891.758 507.746 886.946 505.549C882.238 503.352 878.629 500.319 876.118 496.448C873.608 492.577 872.352 488.184 872.352 483.267C872.352 475.421 875.282 469.249 881.14 464.75C887.103 460.252 896.256 458.003 908.601 458.003H928.058C928.058 452.668 926.437 448.588 923.194 445.763C919.951 442.834 915.087 441.369 908.601 441.369C904.102 441.369 899.656 442.102 895.262 443.566C890.973 444.926 887.312 446.809 884.278 449.215L875.491 432.111C880.094 428.868 885.586 426.358 891.967 424.579C898.453 422.801 905.096 421.912 911.896 421.912ZM910.013 492.368C914.197 492.368 917.911 491.427 921.154 489.543C924.397 487.556 926.699 484.679 928.058 480.913V472.282H911.268C901.225 472.282 896.204 475.578 896.204 482.168C896.204 485.307 897.407 487.817 899.813 489.7C902.324 491.479 905.724 492.368 910.013 492.368ZM1016.75 421.912C1024.59 421.912 1031.71 423.742 1038.09 427.404C1044.57 430.961 1049.65 436.034 1053.31 442.625C1056.97 449.111 1058.8 456.695 1058.8 465.378C1058.8 474.061 1056.97 481.698 1053.31 488.288C1049.65 494.774 1044.57 499.848 1038.09 503.509C1031.71 507.066 1024.59 508.845 1016.75 508.845C1005.97 508.845 997.498 505.445 991.326 498.645V538.031H966.847V423.167H990.228V432.896C996.295 425.573 1005.14 421.912 1016.75 421.912ZM1012.51 488.759C1018.79 488.759 1023.91 486.667 1027.89 482.482C1031.97 478.193 1034.01 472.492 1034.01 465.378C1034.01 458.264 1031.97 452.615 1027.89 448.431C1023.91 444.142 1018.79 441.997 1012.51 441.997C1006.23 441.997 1001.06 444.142 996.975 448.431C993 452.615 991.012 458.264 991.012 465.378C991.012 472.492 993 478.193 996.975 482.482C1001.06 486.667 1006.23 488.759 1012.51 488.759ZM1117.24 421.912C1125.09 421.912 1132.2 423.742 1138.58 427.404C1145.07 430.961 1150.14 436.034 1153.8 442.625C1157.47 449.111 1159.3 456.695 1159.3 465.378C1159.3 474.061 1157.47 481.698 1153.8 488.288C1150.14 494.774 1145.07 499.848 1138.58 503.509C1132.2 507.066 1125.09 508.845 1117.24 508.845C1106.47 508.845 1097.99 505.445 1091.82 498.645V538.031H1067.34V423.167H1090.72V432.896C1096.79 425.573 1105.63 421.912 1117.24 421.912ZM1113.01 488.759C1119.28 488.759 1124.41 486.667 1128.38 482.482C1132.46 478.193 1134.5 472.492 1134.5 465.378C1134.5 458.264 1132.46 452.615 1128.38 448.431C1124.41 444.142 1119.28 441.997 1113.01 441.997C1106.73 441.997 1101.55 444.142 1097.47 448.431C1093.5 452.615 1091.51 458.264 1091.51 465.378C1091.51 472.492 1093.5 478.193 1097.47 482.482C1101.55 486.667 1106.73 488.759 1113.01 488.759ZM777.043 582.311H801.522V698.745H777.043V582.311ZM816.395 614.322H840.874V698.745H816.395V614.322ZM828.635 602.553C824.136 602.553 820.475 601.246 817.65 598.631C814.826 596.015 813.414 592.772 813.414 588.902C813.414 585.031 814.826 581.788 817.65 579.173C820.475 576.557 824.136 575.25 828.635 575.25C833.133 575.25 836.794 576.505 839.619 579.016C842.444 581.526 843.856 584.665 843.856 588.431C843.856 592.511 842.444 595.911 839.619 598.631C836.794 601.246 833.133 602.553 828.635 602.553ZM884.15 700C877.141 700 870.289 699.163 863.593 697.489C856.898 695.711 851.563 693.514 847.588 690.899L855.747 673.324C859.513 675.73 864.064 677.718 869.399 679.287C874.735 680.751 879.965 681.484 885.091 681.484C895.448 681.484 900.626 678.921 900.626 673.795C900.626 671.388 899.214 669.662 896.389 668.616C893.565 667.57 889.223 666.681 883.365 665.949C876.461 664.903 870.759 663.699 866.261 662.34C861.763 660.98 857.84 658.573 854.492 655.121C851.249 651.669 849.627 646.752 849.627 640.371C849.627 635.036 851.144 630.328 854.178 626.248C857.317 622.064 861.815 618.821 867.673 616.519C873.636 614.218 880.645 613.067 888.7 613.067C894.663 613.067 900.574 613.747 906.432 615.107C912.395 616.362 917.312 618.141 921.183 620.442L913.023 637.86C905.595 633.676 897.488 631.583 888.7 631.583C883.47 631.583 879.547 632.316 876.932 633.78C874.316 635.245 873.009 637.128 873.009 639.429C873.009 642.045 874.421 643.875 877.245 644.922C880.07 645.968 884.568 646.961 890.74 647.903C897.645 649.054 903.294 650.309 907.688 651.669C912.081 652.924 915.9 655.278 919.143 658.73C922.386 662.183 924.007 666.995 924.007 673.167C924.007 678.398 922.438 683.053 919.3 687.133C916.161 691.213 911.558 694.403 905.491 696.705C899.528 698.902 892.414 700 884.15 700ZM985.715 694.665C983.309 696.443 980.328 697.803 976.771 698.745C973.319 699.582 969.657 700 965.786 700C955.744 700 947.95 697.437 942.406 692.311C936.966 687.185 934.246 679.653 934.246 669.715V635.036H921.222V616.205H934.246V595.649H958.725V616.205H979.752V635.036H958.725V669.401C958.725 672.958 959.614 675.73 961.393 677.718C963.276 679.601 965.891 680.542 969.239 680.542C973.109 680.542 976.405 679.496 979.125 677.404L985.715 694.665ZM1002.4 700C998.112 700 994.503 698.535 991.573 695.606C988.644 692.677 987.18 689.016 987.18 684.622C987.18 680.124 988.644 676.515 991.573 673.795C994.503 670.97 998.112 669.558 1002.4 669.558C1006.69 669.558 1010.3 670.97 1013.23 673.795C1016.16 676.515 1017.62 680.124 1017.62 684.622C1017.62 689.016 1016.16 692.677 1013.23 695.606C1010.3 698.535 1006.69 700 1002.4 700Z" fill="black"/>
</svg>
