<svg width="1000" height="1000" viewBox="0 0 1000 1000" fill="none" xmlns="http://www.w3.org/2000/svg">
<path d="M733.671 232.511C733.523 232.363 733.203 232.363 732.735 232.363C732.292 232.215 731.676 231.895 730.888 231.895C729.829 231.747 728.894 231.747 727.983 231.747C727.047 231.6 726.431 231.6 725.963 231.747C725.348 231.747 725.052 231.747 725.052 231.895C724.116 231.895 721.826 232.363 713.971 234.358C707.051 235.909 697.817 238.051 680.727 242.533C661.79 247.286 641.795 252.531 621.627 257.751C602.838 262.381 591.313 265.139 582.079 267.454C571.909 269.768 568.067 270.532 566.516 271C565.457 270.679 563.142 270.064 557.749 269.153C552.824 268.069 546.816 266.838 537.286 265.754C526.968 264.523 516.823 263.908 506.652 263.612C496.802 263.292 490.646 263.612 485.573 264.08C479.885 264.228 477.57 264.523 476.487 264.696C474.96 264.08 471.414 262.676 461.712 258.687C452.797 254.846 441.396 250.068 423.075 242.533C403.079 234.062 382.911 225.591 363.975 218.056C346.59 211.136 337.207 207.59 330.115 205.128C321.817 202.049 319.354 201.434 318.418 201.286C317.655 200.498 315.956 199.587 312.262 200.203C308.741 199.882 304.431 200.966 298.423 206.507C291.946 212.811 285.963 221.429 280.25 231.895C274.709 241.745 271.631 249.921 269.168 257.136C266.263 264.228 265.179 267.601 264.711 269.448C266.41 268.069 270.572 265.607 280.717 262.061C289.804 257.924 301.033 253.91 319.354 251.595C338.734 249.453 358.286 249.748 377.839 252.531C395.84 255.461 406.921 260.214 416.008 264.843C425.858 268.833 429.847 271.467 431.694 272.994C433.713 273.758 437.702 275.925 445.705 282.376C453.561 287.769 462.475 295.009 472.793 308.233C483.111 322.564 491.41 337.783 497.418 353.789C502.663 368.736 503.574 378.587 503.722 387.033C504.51 395.972 504.042 399.813 503.722 401.66C503.894 400.749 504.338 399.05 505.741 394.741C506.8 390.727 508.204 385.802 511.43 378.414C514.803 370.411 518.497 362.876 522.979 355.34C527.116 348.101 530.194 343.939 532.977 340.418C535.735 336.404 536.966 334.705 537.754 333.941C539.133 330.863 542.974 325.323 554.203 315.325C563.758 304.859 576.366 293.778 598.996 282.549C623.326 271.147 649.182 263.612 675.802 259.918C700.723 256.988 717.049 259.303 730.593 262.529C745.048 264.523 751.204 266.69 754.134 268.217C753.987 267.454 753.519 266.075 752.755 262.996C751.992 259.918 751.056 256.372 749.209 251.767C747.067 246.842 744.752 242.681 742.29 239.135C739.827 235.909 737.98 234.678 736.429 233.914C734.754 232.683 733.966 232.511 733.671 232.511ZM499.881 426.901C499.733 427.517 499.413 429.216 498.354 432.762C497.418 435.84 496.187 439.534 493.724 445.517C490.966 451.846 488.036 458.002 484.638 464.306C481.264 469.995 478.802 473.541 476.807 476.471C474.64 479.697 473.556 480.928 473.261 481.692C471.709 484.622 456.319 501.539 456.319 501.539C456.319 501.539 433.393 524.786 409.999 539.265C384.463 554.656 357.523 567.116 329.968 574.651C303.964 580.512 287.194 578.813 273.478 575.415C258.555 573.125 252.399 569.726 249.788 567.411C249.321 567.116 248.409 566.796 246.71 565.885C245.011 564.949 243.016 564.038 240.086 562.339C236.86 560.492 233.782 558.645 230.704 556.65C227.774 554.656 225.927 553.252 224.548 552.193C222.849 550.79 222.233 550.174 222.085 550.026C221.617 552.957 221.617 559.261 224.08 573.125C225.311 586.2 227.921 601.443 236.712 623.138C246.39 645.916 258.875 666.848 273.478 686.08C287.342 703.637 298.423 712.404 308.125 719.028C317.803 727.031 322.58 729.789 325.043 730.873C325.19 730.405 325.658 729.641 327.21 728.09C328.268 726.416 329.82 724.569 332.75 722.402C335.828 719.939 339.35 717.945 343.216 716.565C346.737 715.162 349.52 714.866 351.835 714.866C354.125 714.546 355.356 714.546 355.972 714.719C357.671 714.398 360.749 714.398 365.378 716.098C369.836 717.624 374.145 720.259 378.454 724.864C382.148 730.257 384.143 736.093 386.137 740.107C388.157 742.865 389.388 742.865 390.619 741.806C392.146 741.018 393.229 739.344 393.845 738.26C393.993 737.177 394.929 735.65 398.45 734.246C401.528 732.252 405.837 730.873 413.397 732.399C421.696 734.566 430.167 738.876 437.85 744.712C444.326 750.105 447.405 755.178 449.251 759.807C451.394 764.117 451.714 766.259 451.566 767.342C451.394 767.342 451.394 767.663 451.566 768.278C451.566 768.574 451.566 769.042 451.714 769.953C451.714 770.741 451.714 771.652 451.714 772.588C451.566 773.203 451.566 773.646 451.566 774.114C451.394 774.434 451.394 774.73 451.566 774.878C451.566 774.73 451.714 774.73 452.182 774.878C452.477 774.878 452.797 774.878 453.561 775.05C454.176 775.05 454.792 775.198 455.555 775.346C456.171 775.346 456.639 775.346 457.107 775.346C457.402 775.346 457.55 775.346 457.722 775.493C457.55 775.346 457.55 775.198 457.55 774.73C457.402 774.262 457.402 773.819 457.402 773.031C457.255 772.12 457.255 771.184 457.402 770.273C457.402 769.337 457.402 768.721 457.55 768.278C457.55 767.663 457.55 767.342 457.722 767.342C457.402 766.259 457.55 764.117 459.865 759.807C461.564 755.178 464.642 750.105 471.266 744.712C478.802 738.876 487.42 734.566 495.719 732.399C503.106 730.873 507.416 732.252 510.666 734.246C514.04 735.65 514.976 737.177 515.271 738.26C515.739 739.344 516.823 741.018 518.497 741.806C519.581 742.865 520.812 742.865 522.979 740.107C524.826 736.093 526.82 730.257 530.662 724.864C534.823 720.259 539.281 717.624 543.91 716.098C548.367 714.398 551.445 714.398 553.145 714.719C554.056 714.398 555.903 714.251 559.744 715.014C563.29 715.334 567.452 716.245 572.672 719.471C577.917 723.017 582.375 727.474 586.068 732.867C589.294 737.792 590.525 741.634 591.313 745.032C592.372 748.258 592.692 749.957 592.84 750.72C594.687 749.957 598.849 748.11 607.763 742.865C616.234 738.26 626.404 732.399 640.391 721.638C654.871 709.794 668.267 697.309 680.579 684.701C691.808 673.004 697.644 665.616 702.274 659.608C707.667 652.984 709.661 650.226 710.573 648.994C711.188 648.059 712.592 646.064 715.67 642.075C718.428 638.209 721.506 633.899 726.283 627.127C731.061 619.912 735.518 612.82 739.975 605.58C743.989 598.661 746.279 594.204 748.126 590.51C750.145 586.348 750.909 584.649 751.204 583.886C749.357 584.206 745.22 584.821 735.518 585.585C726.579 586.496 715.818 587.284 698.26 587.284C679.348 587.112 660.411 586.2 641.622 584.501C623.942 582.507 613.008 580.34 604.069 578.05C594.219 575.735 590.082 574.183 588.383 573.42C585.6 572.952 580.38 571.573 570.678 565.885C560.828 561.428 550.066 554.951 537.582 540.792C524.653 524.933 514.508 507.08 507.12 487.848C500.348 469.527 499.117 456.771 499.265 445.838C498.181 434.288 499.117 429.216 499.881 426.901ZM476.091 527.106C475.647 526.933 475.475 526.786 477.174 527.401C478.405 527.721 486.729 530.479 486.729 530.479L505 537.5L518 543.5C518 543.5 522 546.68 522 547C522.468 546.532 521.647 552.174 521.647 552.174C521.647 552.174 520.268 559.266 513.964 571.874C505.345 586.821 494.264 603.591 485.03 618.046C477.79 629.915 474.244 637.13 474.244 637.13C474.244 637.13 472.569 640.529 472.717 639.593C472.865 640.676 471.486 637.303 471.486 637.303L461.5 618.046C461.5 618.046 446.541 587.256 441 574.5C435.459 562.951 433.465 556.656 433.465 556.656C433.465 556.656 432.381 551.878 433.169 552.174C432.997 551.878 433.169 551.411 435.459 549.711C437.306 547.865 446.097 542.176 446.097 542.176L466.093 531.563C466.093 531.563 473.628 527.869 475.032 527.401C476.559 526.638 476.411 526.786 476.091 527.106C475.943 526.933 475.943 526.933 476.091 527.106Z" fill="black"/>
<path d="M491.582 799.355C491.729 799.355 491.729 799.503 491.114 799.355C490.35 799.355 489.267 799.207 486.952 797.976C484.022 796.597 480.796 794.75 478.333 792.115C476.191 789.209 475.403 786.574 475.255 784.112C474.787 781.502 475.255 780.123 475.575 779.359C475.255 778.571 475.403 777.192 477.102 774.434C478.333 771.356 480.648 767.958 485.573 764.412C491.114 760.57 497.418 757.64 503.574 756.261C508.967 755.178 512.193 756.113 514.655 757.492C517.118 758.428 517.733 759.339 518.053 760.103C518.497 760.891 519.285 761.949 520.516 762.565C521.279 763.181 522.043 763.353 523.742 761.506C525.121 758.871 526.672 755.03 529.578 751.484C532.656 748.406 536.054 746.731 539.428 745.795C542.826 744.712 544.969 744.712 546.372 744.884C547.431 744.564 549.598 744.416 553.587 745.5C557.454 746.115 561.763 747.494 566.22 751.804C570.529 756.581 573.608 762.417 575.454 768.894C576.981 774.73 576.686 778.744 576.07 782.117C575.75 785.516 575.307 786.747 574.987 787.362C575.307 788.126 575.307 789.653 571.613 791.82C568.215 793.962 562.822 796.129 551.741 797.976C538.665 799.355 524.357 799.823 511.897 799.97C501.111 800.118 496.507 799.675 493.872 799.503C490.646 799.355 490.794 799.355 491.582 799.355Z" fill="black"/>
<path d="M410.319 795.193C410.147 795.193 409.999 795.193 410.762 795.045C411.378 795.045 412.314 795.045 414.628 793.814C417.091 792.435 419.849 790.441 422.311 787.51C424.158 784.432 424.922 781.649 425.242 779.039C425.537 776.429 425.094 774.878 424.922 774.114C425.094 773.203 424.922 771.652 423.543 768.721C422.311 765.495 420.169 761.949 415.86 758.108C410.615 753.946 404.926 750.868 399.386 749.489C394.313 748.406 391.382 749.341 389.388 750.868C387.073 751.804 386.457 752.887 386.31 753.651C385.842 754.414 385.078 755.498 384.143 756.113C383.232 756.877 382.444 756.877 381.064 755.03C379.685 752.272 378.134 748.258 375.672 744.564C372.766 741.338 369.688 739.491 366.757 738.408C363.679 737.177 361.685 737.177 360.601 737.497C359.518 737.177 357.523 736.881 353.977 738.112C350.283 738.728 346.442 740.255 342.428 744.712C338.291 749.809 335.508 756.113 333.981 762.885C332.43 769.041 332.898 773.351 333.514 776.897C333.661 780.418 334.129 781.822 334.425 782.585C333.981 783.349 333.981 784.9 337.503 787.19C340.433 789.505 345.358 791.82 355.528 793.666C367.225 795.193 380.301 795.809 391.85 795.981C401.528 796.129 405.837 795.661 408.3 795.366C411.23 795.193 410.762 795.193 410.319 795.193C410.147 795.193 410.147 795.193 410.319 795.193Z" fill="black"/>
<path fill-rule="evenodd" clip-rule="evenodd" d="M706.395 533.205C771.064 517.118 811.512 455.931 796.737 396.541C781.963 337.151 717.561 302.047 652.892 318.135C588.223 334.222 547.775 395.409 562.549 454.799C577.324 514.189 641.725 549.293 706.395 533.205ZM677.409 425.807C698.965 420.444 712.448 400.049 707.523 380.252C702.598 360.455 681.131 348.754 659.574 354.117C638.018 359.479 624.535 379.875 629.46 399.672C634.385 419.468 655.852 431.169 677.409 425.807Z" fill="black"/>
<path fill-rule="evenodd" clip-rule="evenodd" d="M347.889 517.194C412.558 501.106 453.006 439.92 438.231 380.529C423.457 321.139 359.055 286.036 294.386 302.124C229.717 318.211 189.269 379.398 204.043 438.788C218.818 498.178 283.22 533.282 347.889 517.194ZM359.745 418.419C381.302 413.057 394.784 392.661 389.86 372.864C384.935 353.068 363.467 341.366 341.911 346.729C320.355 352.092 306.872 372.487 311.797 392.284C316.722 412.081 338.189 423.782 359.745 418.419Z" fill="black"/>
</svg>
